<svg xmlns="http://www.w3.org/2000/svg" viewBox="0 0 100 120" fill="none">
  <!-- Simplified Cambridge University shield -->
  <path d="M50 5L10 25V75L50 115L90 75V25L50 5Z" fill="#A3152A" stroke="#7A0E1E" stroke-width="2"/>
  <path d="M50 15L20 30V70L50 105L80 70V30L50 15Z" fill="none" stroke="#D4A843" stroke-width="1.5"/>
  <!-- Cross -->
  <line x1="50" y1="30" x2="50" y2="90" stroke="#D4A843" stroke-width="3"/>
  <line x1="30" y1="55" x2="70" y2="55" stroke="#D4A843" stroke-width="3"/>
  <!-- Ermine spots -->
  <circle cx="40" cy="42" r="2" fill="#D4A843"/>
  <circle cx="60" cy="42" r="2" fill="#D4A843"/>
  <circle cx="40" cy="70" r="2" fill="#D4A843"/>
  <circle cx="60" cy="70" r="2" fill="#D4A843"/>
  <!-- Lions passant (simplified) -->
  <path d="M32 80L38 76L42 80L38 84Z" fill="#D4A843"/>
  <path d="M58 80L64 76L68 80L64 84Z" fill="#D4A843"/>
</svg>
