<svg xmlns="http://www.w3.org/2000/svg" viewBox="0 0 100 100" fill="none">
  <!-- Harvard shield shape -->
  <path d="M50 5L10 20V60C10 80 30 95 50 95C70 95 90 80 90 60V20L50 5Z" fill="#A41034"/>
  <path d="M50 12L17 25V60C17 76 34 89 50 89C66 89 83 76 83 60V25L50 12Z" fill="none" stroke="#fff" stroke-width="1"/>
  <!-- CS50 text -->
  <text x="50" y="48" text-anchor="middle" font-family="Georgia, serif" font-size="18" font-weight="700" fill="#fff">CS50</text>
  <!-- VE RI TAS banners -->
  <rect x="22" y="55" width="16" height="12" fill="#fff" rx="1"/>
  <rect x="42" y="55" width="16" height="12" fill="#fff" rx="1"/>
  <rect x="62" y="55" width="16" height="12" fill="#fff" rx="1"/>
  <text x="30" y="64" text-anchor="middle" font-family="Georgia, serif" font-size="7" fill="#A41034">VE</text>
  <text x="50" y="64" text-anchor="middle" font-family="Georgia, serif" font-size="7" fill="#A41034">RI</text>
  <text x="70" y="64" text-anchor="middle" font-family="Georgia, serif" font-size="7" fill="#A41034">TAS</text>
</svg>
