<svg xmlns="http://www.w3.org/2000/svg" viewBox="0 0 160 40" fill="none">
  <!-- Red Bull style -->
  <rect x="0" y="0" width="160" height="40" rx="4" fill="#DB0A40"/>
  <!-- Bull silhouettes -->
  <path d="M20 28C20 28 16 22 18 18C20 14 24 16 26 14C28 12 26 10 28 10C30 10 32 14 30 18C28 22 32 24 30 28Z" fill="#F7D417" opacity="0.9"/>
  <path d="M42 28C42 28 46 22 44 18C42 14 38 16 36 14C34 12 36 10 34 10C32 10 30 14 32 18C34 22 30 24 32 28Z" fill="#F7D417" opacity="0.9"/>
  <!-- Sun -->
  <circle cx="31" cy="12" r="4" fill="#F7D417"/>
  <!-- Text -->
  <text x="58" y="18" font-family="system-ui, sans-serif" font-size="9" font-weight="800" fill="#fff" letter-spacing="0.5">RED BULL</text>
  <text x="58" y="30" font-family="system-ui, sans-serif" font-size="8" font-weight="600" fill="#F7D417" letter-spacing="1">FOILING GEN</text>
</svg>
